<?xml version="1.0" standalone="no"?>
<!DOCTYPE svg PUBLIC "-//W3C//DTD SVG 20010904//EN"
 "http://www.w3.org/TR/2001/REC-SVG-20010904/DTD/svg10.dtd">
<svg version="1.0" xmlns="http://www.w3.org/2000/svg"
 width="1000.000000pt" height="1000.000000pt" viewBox="0 0 1000.000000 1000.000000"
 preserveAspectRatio="xMidYMid meet">
<metadata>
Created by potrace 1.14, written by Peter Selinger 2001-2017
</metadata>
<g transform="translate(0.000000,1000.000000) scale(0.100000,-0.100000)"
fill="#000000" stroke="none">
<path d="M6175 9788 c-104 -14 -186 -47 -255 -103 -14 -11 -62 -56 -107 -100
-82 -81 -92 -99 -108 -195 -3 -19 -7 -46 -10 -60 -14 -77 -17 -95 -30 -235 -3
-33 -8 -71 -10 -85 -2 -14 -7 -72 -10 -130 -4 -58 -8 -123 -10 -145 -1 -22 -6
-83 -9 -135 -7 -97 -13 -168 -21 -230 -3 -19 -7 -60 -10 -90 -14 -151 -63
-329 -112 -407 -39 -64 -71 -86 -124 -86 -51 0 -82 29 -108 97 -18 50 -55 211
-65 291 -3 22 -10 72 -16 110 -35 244 -35 554 0 735 10 51 39 177 45 200 16
57 76 312 81 340 3 19 7 42 10 51 2 8 -2 23 -9 32 -10 15 -29 18 -107 19 -96
1 -380 -11 -435 -17 -16 -3 -66 -7 -110 -10 -105 -8 -146 -13 -275 -30 -25 -4
-61 -9 -80 -11 -291 -39 -417 -107 -517 -279 -70 -120 -158 -409 -189 -623 -3
-20 -9 -62 -14 -92 -10 -60 -18 -119 -24 -191 -12 -122 -18 -189 -22 -239 -2
-30 -7 -237 -9 -460 -11 -845 -12 -872 -56 -966 -42 -87 -108 -116 -176 -75
-34 22 -96 99 -136 173 -126 228 -254 705 -282 1048 -2 25 -7 86 -12 135 -9
102 -9 741 0 912 l5 113 -139 -73 c-162 -84 -142 -73 -294 -161 -299 -173
-506 -317 -680 -472 -401 -358 -793 -852 -1081 -1366 -157 -280 -363 -709
-443 -923 -60 -159 -113 -403 -139 -633 -9 -87 -9 -306 1 -357 35 -185 147
-547 202 -659 48 -94 165 -270 265 -396 97 -123 398 -426 520 -523 112 -90
219 -136 375 -163 74 -12 259 -11 350 2 255 38 665 164 665 204 0 16 -60 39
-190 75 -194 53 -422 176 -605 325 -90 74 -260 247 -367 375 -99 118 -214 267
-229 298 -10 21 58 -46 126 -124 17 -19 74 -84 127 -145 204 -233 374 -372
583 -477 275 -138 467 -199 630 -201 98 -1 127 4 173 28 62 32 60 69 -14 211
-141 273 -278 419 -606 647 -29 21 -103 72 -165 115 -259 180 -391 301 -440
404 -34 70 -111 307 -167 515 -60 219 -44 194 65 -101 58 -158 135 -319 179
-375 17 -21 30 -41 30 -45 0 -12 140 -147 215 -207 39 -31 212 -152 385 -268
173 -117 345 -237 382 -266 145 -119 318 -303 357 -381 11 -23 25 -44 30 -47
24 -15 475 402 571 529 52 67 56 89 30 166 -24 70 -138 302 -231 469 -87 158
-152 301 -194 430 -21 63 -44 135 -52 160 -8 25 -16 53 -18 63 -2 10 -27 98
-54 195 -56 200 -92 348 -81 335 4 -4 20 -42 35 -83 15 -41 31 -84 36 -95 4
-11 26 -74 49 -140 23 -66 45 -129 50 -140 4 -11 32 -81 60 -155 29 -74 63
-158 76 -187 13 -28 24 -54 24 -58 0 -12 110 -233 167 -335 120 -214 244 -400
267 -400 26 0 157 105 360 290 53 48 71 65 157 141 41 37 86 77 100 90 64 59
111 101 204 184 55 50 105 94 111 100 41 38 184 167 204 185 l24 21 -127 383
c-120 361 -182 559 -193 616 -4 20 -13 63 -19 90 -13 57 -25 320 -14 320 5 0
9 -8 9 -17 0 -9 4 -30 10 -47 5 -17 25 -96 44 -176 31 -128 110 -390 135 -445
5 -11 19 -47 32 -80 72 -190 194 -423 243 -464 22 -18 39 -4 325 268 262 249
998 974 1115 1099 l58 63 -5 67 c-4 37 -9 96 -13 132 -10 82 -10 340 -2 445
15 180 96 458 199 680 16 35 29 69 29 76 0 7 3 10 6 6 3 -3 -12 -68 -34 -144
-88 -299 -136 -526 -135 -633 0 -91 78 -418 107 -448 10 -10 16 -9 31 5 11 10
65 58 120 107 55 49 102 92 105 95 3 3 46 42 95 86 50 43 97 86 106 95 22 21
87 80 199 180 52 47 97 87 100 90 3 3 46 41 95 85 50 44 92 82 95 86 3 3 32
30 65 60 34 30 101 90 149 134 49 44 98 88 110 98 12 10 38 34 59 53 50 47 47
30 -6 -27 -23 -25 -82 -90 -132 -145 -112 -123 -595 -650 -665 -725 -19 -20
-52 -57 -74 -81 -21 -23 -64 -70 -95 -104 -108 -116 -268 -289 -312 -338 -24
-27 -57 -63 -74 -81 -16 -17 -67 -71 -112 -121 -44 -49 -94 -103 -110 -119
-68 -73 -234 -254 -274 -299 -81 -90 -100 -75 184 -146 139 -34 259 -63 267
-65 8 -2 51 -12 95 -24 44 -11 96 -23 115 -26 19 -3 42 -8 50 -10 8 -2 29 -7
45 -10 17 -2 39 -7 50 -9 22 -5 167 -35 200 -42 11 -2 43 -7 70 -10 28 -3 53
-7 56 -9 12 -8 160 -20 254 -20 89 0 162 6 260 20 85 12 119 14 104 5 -25 -14
-357 -98 -425 -106 -104 -14 -333 -8 -484 11 -19 2 -55 7 -80 10 -37 5 -242
39 -365 60 -16 3 -102 21 -190 41 -88 19 -203 44 -255 55 -237 50 -231 50
-260 29 -25 -18 -479 -481 -790 -807 -382 -399 -445 -469 -445 -487 0 -10 114
-71 246 -130 405 -183 612 -265 944 -375 403 -133 564 -169 1140 -256 25 -4
152 -25 185 -30 14 -2 59 -9 100 -15 41 -6 100 -15 130 -20 57 -9 101 -16 160
-24 19 -3 46 -8 60 -10 14 -2 86 -14 160 -26 74 -12 137 -24 140 -27 5 -5
-250 3 -390 12 -36 2 -110 7 -166 10 -104 6 -179 11 -274 20 -30 2 -91 7 -135
10 -44 3 -98 8 -120 10 -37 4 -67 7 -198 20 -122 12 -467 82 -672 135 -448
117 -797 236 -1307 443 l-208 85 -52 -50 c-29 -28 -116 -111 -194 -187 -172
-167 -477 -459 -561 -536 -35 -32 -63 -62 -63 -67 0 -12 63 -72 186 -177 380
-326 1052 -757 1639 -1054 382 -193 604 -284 955 -393 204 -63 134 -62 -140 2
-14 3 -52 12 -85 19 -657 146 -1112 367 -1995 970 -474 323 -606 405 -690 425
-61 15 -89 3 -191 -82 -109 -91 -289 -273 -289 -292 0 -26 51 -95 184 -251 66
-77 130 -151 141 -164 11 -13 27 -31 35 -40 9 -9 40 -45 70 -81 30 -36 57 -67
60 -70 5 -5 162 -187 319 -369 40 -47 85 -100 100 -116 14 -17 55 -64 91 -105
253 -292 455 -472 946 -847 16 -12 38 -29 49 -38 11 -8 83 -60 159 -115 77
-55 142 -103 145 -106 19 -18 -61 24 -159 85 -63 39 -128 78 -144 87 -57 32
-442 288 -578 385 -137 98 -238 177 -373 293 -87 74 -406 394 -500 500 -39 44
-77 87 -85 96 -8 8 -55 63 -105 120 -49 58 -95 110 -101 115 -5 6 -39 44 -75
85 -35 41 -66 77 -69 80 -3 3 -39 43 -80 89 -41 47 -91 99 -110 117 l-35 33
-6 -27 c-10 -50 6 -313 32 -507 16 -128 25 -180 54 -308 30 -136 179 -491 235
-562 20 -25 110 -188 110 -198 -1 -7 -6 -5 -13 4 -7 9 -24 31 -39 50 -58 73
-162 218 -215 299 -31 47 -66 101 -79 120 -13 19 -33 58 -44 85 -12 28 -25 59
-30 70 -12 27 -77 242 -84 280 -4 17 -8 39 -10 50 -2 11 -11 49 -19 85 -8 36
-18 92 -22 125 -4 33 -9 71 -11 85 -2 14 -7 61 -10 105 -9 114 -16 128 -36 74
-14 -37 -53 -202 -73 -304 -3 -16 -8 -41 -10 -55 -17 -86 -46 -261 -51 -308
-3 -30 -7 -63 -9 -73 -27 -141 -24 -586 4 -687 5 -17 8 -32 6 -32 -2 0 8 -30
21 -67 14 -38 33 -92 44 -120 10 -29 45 -103 77 -165 70 -136 138 -209 263
-285 114 -69 391 -198 500 -233 14 -4 90 -31 170 -60 404 -144 1131 -379 1315
-425 147 -36 457 -52 615 -30 30 4 66 9 80 10 136 15 433 92 581 151 35 14 69
27 74 28 36 10 237 102 332 152 290 153 716 450 962 669 43 38 40 36 146 130
71 62 230 214 359 341 81 80 280 294 371 398 33 38 71 80 85 95 14 14 59 67
100 116 41 50 81 96 88 103 7 8 25 30 40 50 15 21 29 39 32 42 15 14 39 60 33
61 -5 0 -174 2 -378 3 -312 3 -570 16 -594 30 -3 2 -28 7 -56 11 -128 17 -557
173 -890 324 -22 10 -218 89 -435 176 -586 233 -796 341 -942 487 -79 78 -117
149 -125 233 -5 55 -3 63 20 91 17 20 44 36 74 45 195 56 591 -70 1453 -461
435 -197 540 -239 770 -307 392 -117 720 -140 1105 -78 332 53 596 221 779
495 151 226 258 524 325 905 19 105 23 135 36 270 3 33 8 78 10 100 8 80 19
262 19 320 0 74 -7 74 -102 6 -377 -268 -576 -367 -797 -396 -55 -7 -355 -8
-395 -1 -14 3 -65 7 -115 11 -49 3 -110 8 -135 11 -25 2 -65 6 -90 8 -92 9
-290 32 -355 41 -16 3 -52 7 -80 10 -109 12 -144 16 -240 31 -563 86 -1081
306 -1106 470 -6 37 62 123 98 125 10 0 27 3 38 5 24 6 495 5 545 0 19 -3 78
-7 130 -10 52 -3 122 -9 155 -12 384 -34 662 -34 853 0 17 3 47 8 65 11 17 3
43 8 57 10 14 3 34 7 45 9 11 2 56 14 100 25 44 12 87 23 95 25 131 33 399
150 552 241 332 199 421 337 419 655 0 52 -2 105 -5 117 -2 11 -8 43 -12 70
-9 67 -9 66 -38 181 -42 162 -190 589 -256 737 -5 11 -23 56 -40 100 -17 44
-35 89 -40 100 -54 121 -138 402 -165 550 -2 17 -7 41 -9 55 -4 23 -31 212
-41 285 -9 70 -17 132 -20 155 -2 14 -11 75 -20 135 -8 61 -18 124 -20 140
-17 116 -57 271 -85 325 -35 68 -49 78 -136 94 -38 7 -318 21 -619 31 -93 3
-188 8 -210 10 -22 2 -74 7 -115 10 -126 10 -340 43 -525 80 -71 14 -146 28
-165 31 -19 3 -37 7 -40 9 -3 2 -24 6 -46 9 -22 4 -51 9 -64 11 -14 3 -41 8
-60 11 -19 3 -42 7 -50 9 -8 2 -35 7 -60 10 -24 4 -47 8 -50 10 -3 2 -37 7
-75 10 -39 4 -72 8 -75 10 -24 14 -336 24 -415 13z"/>
</g>
</svg>
